# Exported from Wings 3D 2.1.5
mtllib blob.mtl
o Cube1
#24 vertices, 44 faces
v 4.75862400 0.10430694 2.68506906
v 4.75862400 0.10430694 0.10430694
v 4.75862400 2.11060506 0.10430694
v 4.75862400 2.11060506 2.68506906
v -1.00000000 -1.00000000 -0.33644800
v -1.00000000 -1.00000000 3.12582400
v -1.00000000 3.21491200 -0.33644800
v -1.00000000 4.09818087 3.34188977
v 4.05971200 -1.00000000 -0.33644800
v 4.33076334 -0.57172881 -0.57172881
v 4.05971200 -1.00000000 3.12582400
v 5.64440506 -0.58619562 3.83846124
v 4.05971200 3.21491200 -0.33644800
v 4.33076334 2.78664081 -0.57172881
v 4.05971200 4.09818087 3.34188977
v 5.64440506 2.77217399 3.83846124
v -0.33644800 -0.33644800 -1.00000000
v -0.33644800 2.55136000 -1.00000000
v 3.39616000 2.55136000 -1.00000000
v 3.39616000 -0.33644800 -1.00000000
v -0.33644800 3.43462887 6.05446577
v -0.33644800 -0.33644800 5.83840000
v 4.70980172 -0.35091482 6.31575643
v 4.70980172 3.42016205 6.53182220
vn 0.88378175 -0.36638747 -0.29101553
vn 0.96267419 -0.19138758 -0.19138758
vn 0.94726670 0.28661585 -0.14330792
vn 0.92751733 0.20646974 -0.31157960
vn -0.27059805 -0.27059805 -0.92387953
vn -0.27059805 0.27059805 -0.92387953
vn 0.17182911 0.34635951 -0.92223091
vn 0.16353708 -0.30901705 -0.93689065
vn 0.35260309 -0.71468462 0.60406701
vn 0.49210792 0.55181021 0.67330178
vn -0.61013148 -0.61013148 -0.50544947
vn -0.61013148 -0.61013148 -0.50544947
vn -0.61013148 -0.61013148 -0.50544947
vn -0.61013148 -0.61013148 -0.50544947
vn -0.61013148 -0.61013148 -0.50544947
vn -0.61013148 -0.61013148 -0.50544947
vn -0.61013148 -0.61013148 -0.50544947
vn -0.61013148 -0.61013148 -0.50544947
vn 0.0000000e+0 -0.99281406 0.11966720
vn -0.99265611 -5.1222455e-3 0.12086197
vn -0.99265611 -5.1222455e-3 0.12086197
vn 0.0000000e+0 -0.99281406 0.11966720
vn -0.58727140 0.57776255 -0.56683573
vn -0.58727140 0.57776255 -0.56683573
vn -0.58727140 0.57776255 -0.56683573
vn -0.58727140 0.57776255 -0.56683573
vn -5.1711915e-3 0.99997725 -4.3320179e-3
vn -0.99282026 -5.9438241e-3 0.11946798
vn -0.99282026 -5.9438241e-3 0.11946798
vn -5.1711915e-3 0.99997725 -4.3320179e-3
vn -5.1711915e-3 0.99997725 -4.3320179e-3
vn -5.1711915e-3 0.99997725 -4.3320179e-3
vn -0.99282026 -5.9438241e-3 0.11946798
vn -0.99282026 -5.9438241e-3 0.11946798
vn 0.55165598 -0.77822100 -0.30007959
vn 0.55165598 -0.77822100 -0.30007959
vn 0.55165598 -0.77822100 -0.30007959
vn 0.55165598 -0.77822100 -0.30007959
vn 0.55165598 -0.77822100 -0.30007959
vn 0.55165598 -0.77822100 -0.30007959
vn 0.68190007 -0.32474891 -0.65540098
vn 0.68190007 -0.32474891 -0.65540098
vn 0.68190007 -0.32474891 -0.65540098
vn 0.68190007 -0.32474891 -0.65540098
vn 0.23582971 -0.97169420 -1.3954306e-2
vn 0.23582971 -0.97169420 -1.3954306e-2
vn 0.23582971 -0.97169420 -1.3954306e-2
vn 0.23582971 -0.97169420 -1.3954306e-2
vn 0.23582971 -0.97169420 -1.3954306e-2
vn 0.23582971 -0.97169420 -1.3954306e-2
vn 0.23582971 -0.97169420 -1.3954306e-2
vn 0.90885721 -0.34424279 -0.23553231
vn 0.90885721 -0.34424279 -0.23553231
vn 0.90885721 -0.34424279 -0.23553231
vn 0.90885721 -0.34424279 -0.23553231
vn 0.90885721 -0.34424279 -0.23553231
vn 0.90885721 -0.34424279 -0.23553231
vn 0.42628137 0.80429823 -0.41399100
vn 0.42628137 0.80429823 -0.41399100
vn 0.42628137 0.80429823 -0.41399100
vn 0.42628137 0.80429823 -0.41399100
vn 0.42628137 0.80429823 -0.41399100
vn 0.42628137 0.80429823 -0.41399100
vn 0.42628137 0.80429823 -0.41399100
vn 0.42628137 0.80429823 -0.41399100
vn 0.68243029 0.21067322 -0.69993264
vn 0.68243029 0.21067322 -0.69993264
vn 0.68243029 0.21067322 -0.69993264
vn 0.68243029 0.21067322 -0.69993264
vn 0.68243029 0.21067322 -0.69993264
vn 0.68243029 0.21067322 -0.69993264
vn 0.51243728 0.83886270 -0.18362298
vn 0.51243728 0.83886270 -0.18362298
vn 0.51243728 0.83886270 -0.18362298
vn 0.51243728 0.83886270 -0.18362298
vn 0.51243728 0.83886270 -0.18362298
vn 0.88821273 0.36232064 -0.28249231
vn 0.88821273 0.36232064 -0.28249231
vn 0.88821273 0.36232064 -0.28249231
vn 0.88821273 0.36232064 -0.28249231
vn -0.53312178 0.44149422 0.72170910
vn -0.53312178 0.44149422 0.72170910
vn -0.53312178 0.44149422 0.72170910
vn -0.51581589 -0.50011339 0.69557211
vn -0.51581589 -0.50011339 0.69557211
vn -0.51581589 -0.50011339 0.69557211
vn -0.51581589 -0.50011339 0.69557211
vn -0.51581589 -0.50011339 0.69557211
vn -0.51581589 -0.50011339 0.69557211
g Cube1_default
usemtl default
s 1
f 1//1 9//39 2//2
f 2//2 4//4 1//1
f 2//2 9//38 10//44
f 2//2 14//66 3//3
f 3//3 4//4 2//2
f 3//3 13//64 4//4
f 4//4 12//53 1//1
f 4//4 15//74 16//80
f 5//11 11//45 6//19
f 5//15 20//8 9//36
f 6//20 8//28 5//12
f 6//21 22//85 8//29
f 7//26 5//18 8//34
f 7//25 18//6 5//17
f 8//27 13//58 7//23
f 8//32 24//10 15//76
f 9//40 1//1 11//51
f 9//35 20//8 10//42
f 10//43 14//70 2//2
f 10//41 20//8 14//68
f 11//49 5//16 9//37
f 11//47 22//86 6//22
f 12//52 11//46 1//1
f 12//55 23//9 11//48
f 13//62 8//31 15//73
f 13//60 18//6 7//24
f 14//67 13//59 3//3
f 14//69 19//7 13//61
f 15//75 4//4 13//65
f 15//72 24//10 16//77
f 16//79 12//57 4//4
f 16//78 24//10 12//56
f 17//5 5//14 18//6
f 17//5 20//8 5//13
f 18//6 13//63 19//7
f 18//6 20//8 17//5
f 19//7 14//71 20//8
f 19//7 20//8 18//6
f 21//83 8//33 22//89
f 21//81 24//10 8//30
f 22//87 11//50 23//9
f 22//88 24//10 21//82
f 23//9 12//54 24//10
f 23//9 24//10 22//84
