# Blender v2.76 (sub 0) OBJ File: ''
# www.blender.org
mtllib colored_cube_high.mtl
o Cube
v 1.000000 8.894809 -1.000000
v 1.000000 8.894809 1.000000
v -1.000000 8.894809 1.000000
v -1.000000 8.894809 -1.000000
v 1.000000 10.894809 -0.999999
v 0.999999 10.894809 1.000001
v -1.000000 10.894809 1.000000
v -1.000000 10.894809 -1.000000
vn 0.000000 1.000000 0.000000
vn 1.000000 0.000000 0.000000
vn -0.000000 -0.000000 1.000000
vn -1.000000 -0.000000 -0.000000
vn 0.000000 0.000000 -1.000000
vn 0.000000 -1.000000 -0.000000
usemtl Material
s off
f 5//1 8//1 7//1 6//1
usemtl Material.002
f 1//2 5//2 6//2 2//2
usemtl Material.003
f 2//3 6//3 7//3 3//3
usemtl Material.004
f 3//4 7//4 8//4 4//4
usemtl Material.005
f 5//5 1//5 4//5 8//5
usemtl Material.006
f 1//6 2//6 3//6 4//6
