# Blender v2.76 (sub 0) OBJ File: ''
# www.blender.org
mtllib empty_60.mtl
o Cube
v 24.999989 -0.005722 -0.005722
v 24.999989 -0.005722 0.005722
v -24.999992 -0.005722 0.005722
v -24.999979 -0.005722 -0.005722
v 25.000000 0.005722 -0.005722
v 24.999971 0.005722 0.005722
v -24.999998 0.005722 0.005722
v -24.999987 0.005722 -0.005722
vn 0.000000 -1.000000 0.000000
vn 0.000000 1.000000 0.000000
vn 1.000000 0.000600 0.001200
vn -0.000000 -0.000000 1.000000
vn -1.000000 -0.000800 -0.001100
vn 0.000000 0.000000 -1.000000
usemtl Material
s off
f 1//1 2//1 3//1 4//1
f 5//2 8//2 7//2 6//2
f 1//3 5//3 6//3 2//3
f 2//4 6//4 7//4 3//4
f 3//5 7//5 8//5 4//5
f 5//6 1//6 4//6 8//6
