# Blender v2.76 (sub 0) OBJ File: 'nav_support_plateau.blend'
# www.blender.org
mtllib nav_support_plateau.mtl
o Cube_Cube.001
v 30.000004 -1.000000 21.499996
v 30.000004 1.000000 21.499996
v 30.000004 -1.200000 21.699997
v 30.000004 1.000000 21.499996
v 30.000004 -1.000000 21.499996
v 30.000004 1.000000 21.499996
v 30.000004 -1.000000 21.499996
v 30.000004 1.000000 21.499996
v 30.000004 -1.000000 21.499996
v 30.000004 -1.000000 21.499996
v 30.000004 1.000000 21.699997
v 30.000004 -1.200000 21.699997
v 30.000004 1.000000 21.699997
v -29.999998 4.000000 22.000004
v 30.000004 1.000000 21.499996
v 30.000004 -1.000000 21.499996
v 30.000004 -1.500000 21.999996
v 30.000004 4.000000 21.999996
v 30.000004 -1.000000 21.499996
v 30.000004 4.000000 21.499996
v -29.999998 -1.000000 21.500004
v -29.999998 4.000000 21.500004
v 30.000004 -1.000000 21.499996
v -29.999998 -1.500000 22.000004
v 26.000002 -1.000000 17.474239
v 26.000002 -1.500000 17.474239
v -25.999998 -1.500000 17.474237
v -25.999998 -1.000000 17.474237
v -30.000000 -1.000000 -6.999999
v -30.000000 -1.500000 -6.999999
v -26.000002 -1.500000 -7.000001
v -26.000002 -1.000000 -7.000001
v 30.000000 -1.000000 -7.000001
v 30.000000 -1.500000 -7.000001
v 25.999998 -1.500000 -6.999998
v 25.999998 -1.000000 -7.000000
vn 0.000000 0.000000 1.000000
vn 1.000000 0.000000 0.000000
vn 0.000000 1.000000 0.000000
vn -0.000000 0.000000 -1.000000
vn -0.000000 -1.000000 -0.000000
vn -1.000000 0.000000 0.000000
usemtl Material.001
s off
f 1//1 2//1 4//1
f 5//1 4//1 6//1
f 7//1 6//1 8//1
f 8//1 19//1 10//1
f 15//1 10//1 23//1
f 23//2 18//2 17//2
f 18//1 14//1 24//1
f 20//3 22//3 14//3
f 23//4 21//4 22//4
f 10//1 1//1 23//1
f 26//5 17//5 24//5
f 19//1 1//1 10//1
f 32//4 31//4 30//4
f 24//6 21//6 30//6
f 35//4 36//4 33//4
f 21//3 25//3 28//3
f 35//6 26//6 25//6
f 28//4 25//4 26//4
f 28//2 27//2 31//2
f 5//1 1//1 4//1
f 7//1 5//1 6//1
f 9//1 7//1 8//1
f 15//1 8//1 10//1
f 20//6 15//6 23//6
f 34//2 33//2 23//2
f 23//2 20//2 18//2
f 17//2 34//2 23//2
f 17//1 18//1 24//1
f 18//3 20//3 14//3
f 20//4 23//4 22//4
f 26//5 35//5 34//5
f 30//5 31//5 27//5
f 26//5 34//5 17//5
f 24//5 30//5 27//5
f 27//5 26//5 24//5
f 29//4 32//4 30//4
f 24//6 14//6 21//6
f 29//6 30//6 21//6
f 14//6 22//6 21//6
f 34//4 35//4 33//4
f 23//3 33//3 25//3
f 32//3 29//3 28//3
f 33//3 36//3 25//3
f 28//3 29//3 21//3
f 21//3 23//3 25//3
f 36//6 35//6 25//6
f 27//4 28//4 26//4
f 32//2 28//2 31//2
l 13 11
l 12 3
l 9 19
l 16 1
l 33 1
