# Exported from Wings 3D 2.1.5
mtllib pain.mtl
o Cylinder1
#40 vertices, 22 faces
v -15.00000000 2.00000000 0.0000000e+0
v -15.00000000 1.90211303 0.77254249
v -15.00000000 1.61803399 1.46946313
v -15.00000000 1.17557050 2.02254249
v -15.00000000 0.61803399 2.37764129
v -15.00000000 1.0409498e-15 2.50000000
v -15.00000000 -0.61803399 2.37764129
v -15.00000000 -1.17557050 2.02254249
v -15.00000000 -1.61803399 1.46946313
v -15.00000000 -1.90211303 0.77254249
v -15.00000000 -2.00000000 3.0616170e-16
v -15.00000000 -1.90211303 -0.77254249
v -15.00000000 -1.61803399 -1.46946313
v -15.00000000 -1.17557050 -2.02254249
v -15.00000000 -0.61803399 -2.37764129
v -15.00000000 5.5109106e-16 -2.50000000
v -15.00000000 0.61803399 -2.37764129
v -15.00000000 1.17557050 -2.02254249
v -15.00000000 1.61803399 -1.46946313
v -15.00000000 1.90211303 -0.77254249
v 15.00000000 2.00000000 0.0000000e+0
v 15.00000000 1.90211303 0.77254249
v 15.00000000 1.61803399 1.46946313
v 15.00000000 1.17557050 2.02254249
v 15.00000000 0.61803399 2.37764129
v 15.00000000 -7.9602042e-16 2.50000000
v 15.00000000 -0.61803399 2.37764129
v 15.00000000 -1.17557050 2.02254249
v 15.00000000 -1.61803399 1.46946313
v 15.00000000 -1.90211303 0.77254249
v 15.00000000 -2.00000000 3.0616170e-16
v 15.00000000 -1.90211303 -0.77254249
v 15.00000000 -1.61803399 -1.46946313
v 15.00000000 -1.17557050 -2.02254249
v 15.00000000 -0.61803399 -2.37764129
v 15.00000000 -1.2858791e-15 -2.50000000
v 15.00000000 0.61803399 -2.37764129
v 15.00000000 1.17557050 -2.02254249
v 15.00000000 1.61803399 -1.46946313
v 15.00000000 1.90211303 -0.77254249
vn -0.45006727 0.89299465 6.2459381e-17
vn -0.45027446 0.86366758 0.22656393
vn -0.45093528 0.76969794 0.45190978
vn -0.45208757 0.59588322 0.66373189
vn -0.45344831 0.33165776 0.82727731
vn -0.45411742 3.6552442e-16 0.89094185
vn -0.45344831 -0.33165776 0.82727731
vn -0.45208757 -0.59588322 0.66373189
vn -0.45093528 -0.76969794 0.45190978
vn -0.45027446 -0.86366758 0.22656393
vn -0.45006727 -0.89299465 1.3741064e-16
vn -0.45027446 -0.86366758 -0.22656393
vn -0.45093528 -0.76969794 -0.45190978
vn -0.45208757 -0.59588322 -0.66373189
vn -0.45344831 -0.33165776 -0.82727731
vn -0.45411742 -2.6469010e-16 -0.89094185
vn -0.45344831 0.33165776 -0.82727731
vn -0.45208757 0.59588322 -0.66373189
vn -0.45093528 0.76969794 -0.45190978
vn -0.45027446 0.86366758 -0.22656393
vn 0.45006727 0.89299465 6.2459381e-17
vn 0.45027446 0.86366758 0.22656393
vn 0.45093528 0.76969794 0.45190978
vn 0.45208757 0.59588322 0.66373189
vn 0.45344831 0.33165776 0.82727731
vn 0.45411742 3.6552442e-16 0.89094185
vn 0.45344831 -0.33165776 0.82727731
vn 0.45208757 -0.59588322 0.66373189
vn 0.45093528 -0.76969794 0.45190978
vn 0.45027446 -0.86366758 0.22656393
vn 0.45006727 -0.89299465 1.3741064e-16
vn 0.45027446 -0.86366758 -0.22656393
vn 0.45093528 -0.76969794 -0.45190978
vn 0.45208757 -0.59588322 -0.66373189
vn 0.45344831 -0.33165776 -0.82727731
vn 0.45411742 -2.6469010e-16 -0.89094185
vn 0.45344831 0.33165776 -0.82727731
vn 0.45208757 0.59588322 -0.66373189
vn 0.45093528 0.76969794 -0.45190978
vn 0.45027446 0.86366758 -0.22656393
g Cylinder1_default
usemtl default
s 1
f 1//1 20//20 19//19 18//18 17//17 16//16 15//15 14//14 13//13 12//12 11//11 10//10 9//9 8//8 7//7 6//6 5//5 4//4 3//3 2//2
f 1//1 21//21 40//40 20//20
f 2//2 22//22 21//21 1//1
f 3//3 23//23 22//22 2//2
f 4//4 24//24 23//23 3//3
f 5//5 25//25 24//24 4//4
f 6//6 26//26 25//25 5//5
f 7//7 27//27 26//26 6//6
f 8//8 28//28 27//27 7//7
f 9//9 29//29 28//28 8//8
f 10//10 30//30 29//29 9//9
f 11//11 31//31 30//30 10//10
f 12//12 32//32 31//31 11//11
f 13//13 33//33 32//32 12//12
f 14//14 34//34 33//33 13//13
f 15//15 35//35 34//34 14//14
f 16//16 36//36 35//35 15//15
f 17//17 37//37 36//36 16//16
f 18//18 38//38 37//37 17//17
f 19//19 39//39 38//38 18//18
f 20//20 40//40 39//39 19//19
f 22//22 23//23 24//24 25//25 26//26 27//27 28//28 29//29 30//30 31//31 32//32 33//33 34//34 35//35 36//36 37//37 38//38 39//39 40//40 21//21
