# Blender v2.76 (sub 0) OBJ File: ''
# www.blender.org
mtllib triangle.mtl
o Cube
v 2.692478 1.766738 -3.015064
v 2.692478 1.766738 -1.015064
v 0.692478 1.766738 -1.015064
v 2.692478 3.766738 -3.015064
v 2.692477 3.766738 -1.015064
v 0.692478 3.766738 -1.015065
v 0.692478 3.766738 -3.015064
vn 0.000000 1.000000 0.000000
vn -0.000000 -0.000000 1.000000
vn 1.000000 0.000000 0.000000
vn -1.000000 -0.000000 -0.000000
vn 0.000000 -0.707100 -0.707100
usemtl Material
s off
f 4//1 7//1 6//1 5//1
usemtl Material.003
f 2//2 5//2 6//2 3//2
usemtl Material.005
f 5//3 2//3 4//3
f 6//4 7//4 3//4
usemtl Material.006
f 3//5 7//5 4//5 2//5
l 1 4
