# Blender v2.76 (sub 0) OBJ File: ''
# www.blender.org
mtllib caisse.mtl
o Cube.002
v 10.343462 -10.343462 -10.343462
v 10.343462 -10.343462 10.343462
v -10.343464 -10.343462 10.343460
v -10.343458 -10.343462 -10.343466
v 10.343468 10.343462 -10.343458
v -10.343462 10.343462 -10.343462
v -10.343466 10.343462 10.343460
v 10.343458 10.343462 10.343468
vt 1.000000 0.000000
vt 1.000000 1.000000
vt 0.000000 1.000000
vt 0.000000 0.000000
vn 0.000000 -1.000000 -0.000000
vn 0.000000 1.000000 0.000000
vn 1.000000 -0.000000 0.000000
vn -0.000000 -0.000000 1.000000
vn -1.000000 -0.000000 -0.000000
vn 0.000000 0.000000 -1.000000
usemtl Material.003
s 1
f 2/1/1 3/2/1 4/3/1
f 6/1/2 7/2/2 8/3/2
f 5/1/3 8/2/3 2/3/3
f 8/1/4 7/2/4 3/3/4
f 7/1/5 6/2/5 4/3/5
f 1/1/6 4/2/6 6/3/6
f 1/4/1 2/1/1 4/3/1
f 5/4/2 6/1/2 8/3/2
f 1/4/3 5/1/3 2/3/3
f 2/4/4 8/1/4 3/3/4
f 3/4/5 7/1/5 4/3/5
f 5/4/6 1/1/6 6/3/6
