# Blender v2.76 (sub 0) OBJ File: ''
# www.blender.org
mtllib carton.mtl
o Cube
v -22.824804 63.882824 22.824802
v -22.824804 63.882824 -22.824804
v 22.824806 63.882824 -22.873579
v 22.824797 63.882824 22.776031
v -22.824816 -22.824804 22.824793
v -22.824789 -22.824804 -22.824818
v 22.824812 -22.824804 -22.824797
v 22.824802 -22.824804 22.824804
v 5.874206 71.075264 -22.765169
v 5.874199 71.075264 22.884441
v -2.428203 66.919296 23.933041
v -2.428200 66.919296 -21.716568
vn 0.000500 0.000300 1.000000
vn 0.000000 1.000000 0.000000
vn 1.000000 -0.000000 0.000000
vn -0.390600 -0.920600 0.000000
vn -1.000000 -0.000000 -0.000000
vn 0.147200 -0.989100 0.000000
vn -0.000500 -0.000300 -1.000000
usemtl Material
s off
f 6//1 7//1 3//1 2//1
f 5//2 8//2 7//2 6//2
f 1//3 5//3 6//3 2//3
f 4//4 10//4 9//4 3//4
f 3//5 7//5 8//5 4//5
f 2//6 12//6 11//6 1//6
f 5//7 1//7 4//7 8//7
