# Blender v2.76 (sub 0) OBJ File: ''
# www.blender.org
mtllib cube2.mtl
o Cube
v 5.171731 -5.171731 -5.171731
v 5.171731 -5.171731 5.171731
v -5.171732 -5.171731 5.171730
v -5.171729 -5.171731 -5.171733
v 5.171734 5.171731 -5.171729
v 5.171729 5.171731 5.171734
v -5.171733 5.171731 5.171730
v -5.171731 5.171731 -5.171731
vt 0.000000 0.000000
vt 1.000000 0.000000
vt 1.000000 1.000000
vt 0.000000 1.000000
vn 0.000000 -1.000000 -0.000000
vn 0.000000 1.000000 0.000000
vn 1.000000 0.000000 0.000000
vn -0.000000 -0.000000 1.000000
vn -1.000000 -0.000000 -0.000000
vn 0.000000 0.000000 -1.000000
usemtl Material.001
s off
f 1/1/1 2/2/1 3/3/1 4/4/1
f 5/1/2 8/2/2 7/3/2 6/4/2
f 1/1/3 5/2/3 6/3/3 2/4/3
f 2/1/4 6/2/4 7/3/4 3/4/4
f 3/1/5 7/2/5 8/3/5 4/4/5
f 5/1/6 1/2/6 4/3/6 8/4/6
