# Blender v2.76 (sub 0) OBJ File: 'nav_support_plateau.blend'
# www.blender.org
mtllib nav_support_plateau_right.mtl
o Cube_Cube.001
v -30.000000 -1.000001 -21.500000
v -30.000000 -1.000001 -21.500000
v -30.000000 -1.000001 -21.500000
v -30.000000 -1.000001 -21.500000
v -30.000000 -1.000001 -21.500000
v -30.000000 -1.000001 -21.500000
v -30.000000 3.999999 -22.000000
v 30.000002 3.999999 -22.000000
v 25.999998 -10.500000 7.000004
v -30.000000 3.999999 -21.500000
v 30.000002 3.999999 -21.500000
v 30.000002 -1.000001 -21.500000
v -26.000000 -1.500001 -17.474243
v -26.000000 -1.500001 -17.474243
v 25.999998 -9.500000 7.000004
v -29.999998 -1.000000 -17.474243
v -29.999998 -1.000000 -17.474243
v 26.000002 -9.500001 -17.474232
v 30.000000 -9.499999 7.000005
v 26.000000 -1.500001 -17.474234
v -30.000000 -1.000001 -21.500000
v 30.000000 -10.500000 7.000005
v 30.000002 -1.000000 -17.474236
v -30.000000 -1.000001 -21.500000
v -25.999998 -1.500001 -22.000000
v -26.000000 -10.500001 -21.999998
v -30.000002 -10.500001 -21.999998
v 26.000000 -1.500001 -21.999998
v 30.000004 -10.500001 -21.999996
v 30.000004 -9.500000 -17.474232
v 26.000002 -10.500001 -21.999996
v -26.000006 -10.500000 6.999997
v -30.000004 -10.499999 6.999996
v -26.000002 -9.500001 -17.474241
v -30.000000 -9.500000 -17.474241
v -26.000006 -9.500001 6.999997
v -30.000004 -9.500000 6.999996
vn 0.000000 0.000000 -1.000000
vn 0.000000 -1.000000 0.000000
vn 0.000000 1.000000 -0.000000
vn -1.000000 0.000000 0.000000
vn 0.000000 0.000000 1.000000
vn 1.000000 0.000000 -0.000000
usemtl Material.001
s off
f 10//1 11//1 12//1
f 11//2 10//2 7//2
f 23//2 17//2 12//2
f 35//3 37//3 36//3
f 12//4 29//4 30//4
f 18//2 30//2 19//2
f 8//5 25//5 28//5
f 36//1 32//1 33//1
f 20//1 23//1 30//1
f 13//1 16//1 23//1
f 28//3 25//3 13//3
f 33//3 32//3 26//3
f 18//6 31//6 28//6
f 31//3 9//3 22//3
f 6//6 35//6 27//6
f 22//1 9//1 15//1
f 32//4 36//4 34//4
f 14//1 34//1 35//1
f 6//1 10//1 12//1
f 8//2 11//2 7//2
f 1//5 6//5 12//5
f 23//5 16//5 17//5
f 1//2 12//2 17//2
f 34//3 35//3 36//3
f 12//4 11//4 8//4
f 30//4 23//4 12//4
f 22//4 19//4 30//4
f 12//4 8//4 29//4
f 29//4 22//4 30//4
f 15//2 18//2 19//2
f 7//5 27//5 25//5
f 31//5 29//5 28//5
f 27//5 26//5 25//5
f 28//5 29//5 8//5
f 8//5 7//5 25//5
f 37//1 36//1 33//1
f 18//1 20//1 30//1
f 20//1 13//1 23//1
f 20//3 28//3 13//3
f 27//3 33//3 26//3
f 18//6 15//6 9//6
f 28//6 20//6 18//6
f 18//6 9//6 31//6
f 29//3 31//3 22//3
f 6//6 16//6 35//6
f 7//6 10//6 6//6
f 37//6 33//6 35//6
f 27//6 7//6 6//6
f 35//6 33//6 27//6
f 19//1 22//1 15//1
f 14//4 25//4 34//4
f 26//4 32//4 34//4
f 34//4 25//4 26//4
f 16//1 14//1 35//1
s 1
f 21//5 3//5 1//5
f 5//5 1//5 6//5
f 4//5 1//5 5//5
f 3//5 2//5 1//5
l 13 14
l 21 4
l 24 1
