# Blender v2.76 (sub 0) OBJ File: 'nav_pusher_support.blend'
# www.blender.org
mtllib nav_pusher_support.mtl
o Cylinder
v 0.000000 3.000000 -2.500000
v 0.326315 3.000000 -2.478612
v 0.326315 -3.000000 -2.478612
v 0.647048 3.000000 -2.414814
v 0.647048 -3.000000 -2.414814
v 0.956709 3.000000 -2.309699
v 0.956709 -3.000000 -2.309699
v 1.250000 3.000000 -2.165063
v 1.250000 -3.000000 -2.165063
v 1.521904 3.000000 -1.983383
v 1.521904 -3.000000 -1.983383
v 1.767767 3.000000 -1.767767
v 1.767767 -3.000000 -1.767767
v 1.983383 3.000000 -1.521904
v 1.983383 -3.000000 -1.521904
v 2.165063 3.000000 -1.250000
v 2.165063 -3.000000 -1.250000
v 2.309699 3.000000 -0.956709
v 2.309699 -3.000000 -0.956709
v 2.414814 3.000000 -0.647048
v 2.414814 -3.000000 -0.647048
v 2.478612 3.000000 -0.326316
v 2.478612 -3.000000 -0.326316
v 2.500000 3.000000 0.000000
v 2.500000 -3.000000 -0.000000
v 2.478612 3.000000 0.326315
v 2.478612 -3.000000 0.326315
v 2.414815 3.000000 0.647047
v 2.414815 -3.000000 0.647047
v 2.309699 3.000000 0.956708
v 2.309699 -3.000000 0.956708
v 2.165064 3.000000 1.250000
v 2.165064 -3.000000 1.250000
v 1.983384 3.000000 1.521903
v 1.983384 -3.000000 1.521903
v 1.767767 3.000000 1.767766
v 1.767767 -3.000000 1.767766
v 1.521904 3.000000 1.983383
v 1.521904 -3.000000 1.983383
v 1.250001 3.000000 2.165063
v 1.250001 -3.000000 2.165063
v 0.956709 3.000000 2.309699
v 0.956709 -3.000000 2.309699
v 0.647048 3.000000 2.414814
v 0.647048 -3.000000 2.414814
v 0.326316 3.000000 2.478612
v 0.326316 -3.000000 2.478612
v 0.000001 3.000000 2.498976
v 0.000000 -3.000000 2.500000
v -0.326314 3.000000 2.478612
v -0.326314 -3.000000 2.478612
v -0.647047 3.000000 2.414815
v -0.647047 -3.000000 2.414815
v -0.956708 3.000000 2.309699
v -0.956708 -3.000000 2.309699
v -1.249999 3.000000 2.165064
v -1.249999 -3.000000 2.165064
v -1.521903 3.000000 1.983384
v -1.521903 -3.000000 1.983384
v -1.767766 3.000000 1.767768
v -1.767766 -3.000000 1.767768
v -1.983383 3.000000 1.521905
v -1.983383 -3.000000 1.521905
v -2.165063 3.000000 1.250001
v -2.165063 -3.000000 1.250001
v -2.309699 3.000000 0.956709
v -2.309699 -3.000000 0.956709
v -2.414815 3.000000 0.647047
v -2.414815 -3.000000 0.647047
v -2.478612 3.000000 0.326315
v -2.478612 -3.000000 0.326315
v -2.500000 3.000000 -0.000001
v -2.500000 -3.000000 -0.000001
v -2.478612 3.000000 -0.326317
v -2.478612 -3.000000 -0.326317
v -2.414814 3.000000 -0.647050
v -2.414814 -3.000000 -0.647050
v -2.309698 3.000000 -0.956711
v -2.309698 -3.000000 -0.956711
v -2.165062 3.000000 -1.250003
v -2.165062 -3.000000 -1.250003
v -1.983381 3.000000 -1.521907
v -1.983381 -3.000000 -1.521907
v -1.767764 3.000000 -1.767770
v -1.767764 -3.000000 -1.767770
v -1.521900 3.000000 -1.983386
v -1.521900 -3.000000 -1.983386
v -1.249995 3.000000 -2.165066
v -1.249995 -3.000000 -2.165066
v -0.956703 3.000000 -2.309701
v -0.956703 -3.000000 -2.309701
v -0.647041 3.000000 -2.414816
v -0.647041 -3.000000 -2.414816
v -0.326308 3.000000 -2.478613
v 0.000000 -3.000000 -2.500000
v -0.326308 -3.000000 -2.478613
v 31.000000 3.958001 2.500000
v 31.000000 3.958001 -2.500000
v 31.000000 5.000000 -2.500000
v 30.041998 3.041999 -2.500000
v 30.041998 3.041999 2.500000
v -31.000002 5.000000 -2.500000
v -31.000000 5.000000 2.500000
v -31.000000 3.959763 2.500000
v -30.040237 3.040237 2.500000
v -31.000002 3.959763 -2.500000
v 31.000000 5.000000 2.500000
v 0.000000 3.000000 2.500000
v -30.040239 3.040237 -2.500000
v -31.000002 5.000000 -0.500000
v -31.000002 4.500000 -0.500000
v -31.000000 5.000000 0.500000
v -31.000000 4.500000 0.500000
v 30.999998 5.000000 -0.500000
v 31.000000 5.000000 0.500000
v 30.999998 4.500000 -0.500000
v 31.000000 4.500000 0.500000
vn 1.000000 0.000000 -0.000000
vn 0.001400 -1.000000 -0.000000
vn 0.001400 -1.000000 0.001400
vn -0.691800 -0.722100 0.000000
vn 0.691100 -0.722800 0.000000
vn 0.000000 1.000000 0.000000
vn 0.000000 0.000000 -1.000000
vn 0.001400 0.000100 -1.000000
vn 0.000000 0.000000 1.000000
vn -1.000000 -0.000000 0.000000
vn 0.001400 -1.000000 -0.001400
vn -0.001400 0.000100 -1.000000
vn 0.001400 0.000000 -1.000000
vn 0.065400 0.000000 -0.997900
vn 0.195100 0.000000 -0.980800
vn 0.321400 0.000000 -0.946900
vn 0.442300 0.000000 -0.896900
vn 0.555600 0.000000 -0.831500
vn 0.659300 0.000000 -0.751800
vn 0.751800 0.000000 -0.659300
vn 0.831500 0.000000 -0.555600
vn 0.896900 0.000000 -0.442300
vn 0.946900 0.000000 -0.321400
vn 0.980800 -0.000000 -0.195100
vn 0.997900 0.000000 -0.065400
vn 0.997900 -0.000000 0.065400
vn 0.980800 -0.000000 0.195100
vn 0.946900 -0.000000 0.321400
vn 0.896900 -0.000000 0.442300
vn 0.831500 -0.000000 0.555600
vn 0.751800 -0.000000 0.659300
vn 0.659300 -0.000000 0.751800
vn 0.555600 -0.000000 0.831500
vn 0.442300 -0.000000 0.896900
vn 0.321400 -0.000000 0.946900
vn 0.195100 -0.000000 0.980800
vn 0.062400 0.000200 0.998100
vn 0.062300 0.000200 0.998100
vn 0.065300 0.000000 0.997900
vn -0.062400 0.000000 0.998100
vn -0.062300 -0.000000 0.998100
vn -0.065300 0.000200 0.997900
vn -0.195100 -0.000000 0.980800
vn -0.321400 -0.000000 0.946900
vn -0.442300 -0.000000 0.896900
vn -0.555600 -0.000000 0.831500
vn -0.659300 -0.000000 0.751800
vn -0.751800 -0.000000 0.659300
vn -0.831500 -0.000000 0.555600
vn -0.896900 -0.000000 0.442300
vn -0.946900 -0.000000 0.321400
vn -0.980800 -0.000000 0.195100
vn -0.997900 0.000000 0.065400
vn -0.997900 0.000000 -0.065400
vn -0.980800 -0.000000 -0.195100
vn -0.946900 0.000000 -0.321400
vn -0.896900 0.000000 -0.442300
vn -0.831500 0.000000 -0.555600
vn -0.751800 0.000000 -0.659300
vn -0.659300 0.000000 -0.751800
vn -0.555600 0.000000 -0.831500
vn -0.442300 0.000000 -0.896900
vn -0.321400 0.000000 -0.946900
vn -0.065400 0.000000 -0.997900
vn -0.195100 0.000000 -0.980800
vn 0.000000 -1.000000 0.000000
vn 0.000000 -1.000000 0.000100
vn 0.000000 -1.000000 0.000200
vn 0.065400 -0.000000 0.997900
vn -0.065400 0.000200 0.997900
vn 0.000000 -1.000000 0.000400
vn -0.001400 -0.000500 1.000000
vn -0.001300 -1.000000 0.000000
usemtl Material.000
s off
f 98//1 116//1 117//1
f 48//2 1//3 100//2
f 105//4 104//4 106//4
f 98//5 97//5 101//5
f 107//6 115//6 112//6
f 99//7 1//8 102//7
f 111//9 116//9 114//9
f 112//7 115//7 117//7
f 111//6 113//6 117//6
f 106//10 113//10 111//10
f 110//6 114//6 99//6
f 117//1 115//1 107//1
f 98//1 99//1 116//1
f 117//1 107//1 97//1
f 99//1 114//1 116//1
f 117//1 97//1 98//1
f 101//11 48//2 100//2
f 109//4 105//4 106//4
f 100//5 98//5 101//5
f 103//6 107//6 112//6
f 109//7 102//7 1//12
f 99//7 100//7 1//13
f 110//9 111//9 114//9
f 113//7 112//7 117//7
f 116//6 111//6 117//6
f 104//10 103//10 113//10
f 110//10 102//10 111//10
f 103//10 112//10 113//10
f 111//10 102//10 106//10
f 106//10 104//10 113//10
f 102//6 110//6 99//6
s 1
f 1//14 2//14 3//14
f 2//15 4//15 5//15
f 4//16 6//16 7//16
f 6//17 8//17 9//17
f 8//18 10//18 11//18
f 10//19 12//19 13//19
f 12//20 14//20 15//20
f 14//21 16//21 17//21
f 16//22 18//22 19//22
f 18//23 20//23 21//23
f 20//24 22//24 23//24
f 22//25 24//25 25//25
f 24//26 26//26 27//26
f 26//27 28//27 29//27
f 28//28 30//28 31//28
f 30//29 32//29 33//29
f 32//30 34//30 35//30
f 34//31 36//31 37//31
f 36//32 38//32 39//32
f 39//33 38//33 40//33
f 43//34 41//34 40//34
f 45//35 43//35 42//35
f 44//36 46//36 47//36
f 46//37 48//38 49//39
f 48//40 50//41 51//42
f 50//43 52//43 53//43
f 52//44 54//44 55//44
f 54//45 56//45 57//45
f 56//46 58//46 59//46
f 58//47 60//47 61//47
f 60//48 62//48 63//48
f 62//49 64//49 65//49
f 64//50 66//50 67//50
f 66//51 68//51 69//51
f 68//52 70//52 71//52
f 70//53 72//53 73//53
f 72//54 74//54 75//54
f 74//55 76//55 77//55
f 76//56 78//56 79//56
f 78//57 80//57 81//57
f 80//58 82//58 83//58
f 82//59 84//59 85//59
f 84//60 86//60 87//60
f 86//61 88//61 89//61
f 88//62 90//62 91//62
f 90//63 92//63 93//63
f 94//64 1//64 95//64
f 92//65 94//65 96//65
f 31//66 63//66 96//66
f 50//67 48//68 108//68
f 95//14 1//14 3//14
f 3//15 2//15 5//15
f 5//16 4//16 7//16
f 7//17 6//17 9//17
f 9//18 8//18 11//18
f 11//19 10//19 13//19
f 13//20 12//20 15//20
f 15//21 14//21 17//21
f 17//22 16//22 19//22
f 19//23 18//23 21//23
f 21//24 20//24 23//24
f 23//25 22//25 25//25
f 25//26 24//26 27//26
f 27//27 26//27 29//27
f 29//28 28//28 31//28
f 31//29 30//29 33//29
f 33//30 32//30 35//30
f 35//31 34//31 37//31
f 37//32 36//32 39//32
f 45//36 44//36 47//36
f 47//69 46//37 49//39
f 49//70 48//40 51//42
f 51//43 50//43 53//43
f 53//44 52//44 55//44
f 55//45 54//45 57//45
f 57//46 56//46 59//46
f 59//47 58//47 61//47
f 61//48 60//48 63//48
f 63//49 62//49 65//49
f 65//50 64//50 67//50
f 67//51 66//51 69//51
f 69//52 68//52 71//52
f 71//53 70//53 73//53
f 73//54 72//54 75//54
f 75//55 74//55 77//55
f 77//56 76//56 79//56
f 79//57 78//57 81//57
f 81//58 80//58 83//58
f 83//59 82//59 85//59
f 85//60 84//60 87//60
f 87//61 86//61 89//61
f 89//62 88//62 91//62
f 91//63 90//63 93//63
f 96//64 94//64 95//64
f 93//65 92//65 96//65
f 96//66 95//66 3//66
f 3//66 5//66 96//66
f 7//66 9//66 15//66
f 11//66 13//66 15//66
f 15//66 17//66 23//66
f 19//66 21//66 23//66
f 23//66 25//66 27//66
f 27//66 29//66 31//66
f 31//66 33//66 35//66
f 35//66 37//66 39//66
f 39//66 41//66 47//66
f 43//66 45//66 47//66
f 47//66 49//66 55//66
f 51//66 53//66 55//66
f 55//66 57//66 59//66
f 59//66 61//66 63//66
f 63//66 65//66 96//66
f 67//66 69//66 71//66
f 71//66 73//66 79//66
f 75//66 77//66 79//66
f 79//66 81//66 83//66
f 83//66 85//66 79//66
f 87//66 89//66 96//66
f 91//66 93//66 96//66
f 96//66 5//66 7//66
f 9//66 11//66 15//66
f 17//66 19//66 23//66
f 23//66 27//66 31//66
f 31//66 35//66 39//66
f 41//66 43//66 47//66
f 49//66 51//66 55//66
f 55//66 59//66 47//66
f 65//66 67//66 71//66
f 73//66 75//66 79//66
f 79//66 85//66 87//66
f 89//66 91//66 96//66
f 96//66 7//66 31//66
f 15//66 23//66 31//66
f 31//66 39//66 47//66
f 47//66 59//66 63//66
f 65//66 71//66 96//66
f 79//66 87//66 96//66
f 7//66 15//66 31//66
f 31//66 47//66 63//66
f 71//66 79//66 96//66
f 108//68 48//68 46//71
f 106//7 102//7 109//7
f 99//7 98//7 100//7
f 97//9 107//9 101//9
f 103//9 104//9 105//9
f 103//9 48//72 107//9
f 109//73 1//73 48//73
f 41//33 39//33 40//33
f 42//34 43//34 40//34
f 44//35 45//35 42//35
f 101//9 107//9 48//72
f 103//9 105//9 48//72
f 105//73 109//73 48//73
