# Blender v2.76 (sub 0) OBJ File: 'nav_support_plateau.blend'
# www.blender.org
mtllib plateau_30.mtl
o Cube.000_Cube.004
v -30.935484 2.000001 -29.000000
v -30.840754 2.000001 -29.154509
v -30.840754 0.000001 -29.154509
v -30.565840 2.000001 -29.293892
v -30.565840 0.000001 -29.293892
v -30.137648 2.000001 -29.404509
v -30.137648 0.000001 -29.404509
v -29.598097 2.000001 -29.475529
v -29.598097 0.000001 -29.475529
v -29.000000 2.000001 -29.500000
v -29.000000 0.000001 -29.500000
v 27.129017 2.000001 -29.499994
v 27.129017 0.000001 -29.499994
v 29.064499 0.000001 -28.999994
v 29.064499 2.000001 -28.999994
v 29.064510 2.000000 0.000002
v 27.129028 2.000000 0.500000
v -28.999989 2.000000 0.499996
v -28.999989 -0.000000 0.499996
v -30.935472 0.000000 -0.000004
v -30.935472 2.000000 -0.000004
v 27.129028 -0.000000 0.500000
v -30.935484 0.000001 -29.000000
v 29.064510 -0.000000 0.000002
v 28.969784 -0.000000 0.154510
v 28.694866 -0.000000 0.293894
v 28.266678 -0.000000 0.404510
v 27.727127 -0.000000 0.475529
v -29.598087 -0.000000 0.475525
v -30.137638 -0.000000 0.404505
v -30.565828 -0.000000 0.293888
v -30.840744 -0.000000 0.154505
v 27.727116 0.000001 -29.475523
v 28.266663 0.000001 -29.404503
v 28.694855 0.000001 -29.293886
v 28.969769 0.000001 -29.154503
v 28.969784 2.000000 0.154510
v 28.694866 2.000000 0.293894
v 28.266678 2.000000 0.404510
v 27.727127 2.000000 0.475529
v -29.598087 2.000000 0.475525
v -30.137638 2.000000 0.404505
v -30.565828 2.000000 0.293888
v -30.840744 2.000000 0.154505
v 27.727116 2.000001 -29.475523
v 28.266663 2.000001 -29.404503
v 28.694855 2.000001 -29.293886
v 28.969769 2.000001 -29.154503
vn 0.040900 0.000000 -0.999200
vn 0.130500 0.000000 -0.991400
vn 0.250100 0.000000 -0.968200
vn 0.452200 0.000000 -0.891900
vn 0.852500 0.000000 -0.522700
vn 0.852500 -0.000000 0.522700
vn 0.452200 -0.000000 0.891900
vn 0.250100 -0.000000 0.968200
vn 0.130500 -0.000000 0.991400
vn 0.040900 -0.000000 0.999200
vn -0.852500 0.000000 -0.522700
vn -0.452200 0.000000 -0.891900
vn -0.250100 0.000000 -0.968200
vn -0.130500 0.000000 -0.991400
vn -0.040900 0.000000 -0.999200
vn 0.000000 0.000000 -1.000000
vn 1.000000 0.000000 -0.000000
vn -0.000000 -0.000000 1.000000
vn -1.000000 0.000000 0.000000
vn -0.000000 -1.000000 -0.000000
vn -0.040900 -0.000000 0.999200
vn -0.130500 -0.000000 0.991400
vn -0.250100 0.000000 0.968200
vn -0.452200 0.000000 0.891900
vn -0.852500 -0.000000 0.522700
usemtl Material.006
s 1
f 12//1 45//1 33//1
f 45//2 46//2 34//2
f 46//3 47//3 35//3
f 47//4 48//4 36//4
f 48//5 15//5 14//5
f 13//1 12//1 33//1
f 33//2 45//2 34//2
f 34//3 46//3 35//3
f 35//4 47//4 36//4
f 36//5 48//5 14//5
usemtl Material.002
f 16//6 37//6 25//6
f 37//7 38//7 26//7
f 38//8 39//8 27//8
f 39//9 40//9 28//9
f 40//10 17//10 22//10
f 24//6 16//6 25//6
f 25//7 37//7 26//7
f 26//8 38//8 27//8
f 27//9 39//9 28//9
f 28//10 40//10 22//10
usemtl Material.004
f 1//11 2//11 3//11
f 2//12 4//12 5//12
f 4//13 6//13 7//13
f 6//14 8//14 9//14
f 8//15 10//15 11//15
f 10//16 12//16 13//16
f 14//17 15//17 16//17
f 17//18 18//18 19//18
f 20//19 21//19 1//19
f 13//20 14//20 22//20
f 23//11 1//11 3//11
f 3//12 2//12 5//12
f 5//13 4//13 7//13
f 7//14 6//14 9//14
f 9//15 8//15 11//15
f 11//16 10//16 13//16
f 24//17 14//17 16//17
f 22//18 17//18 19//18
f 23//19 20//19 1//19
f 14//20 24//20 22//20
f 25//20 26//20 24//20
f 27//20 28//20 24//20
f 22//20 19//20 13//20
f 29//20 30//20 20//20
f 31//20 32//20 20//20
f 20//20 23//20 11//20
f 3//20 5//20 23//20
f 7//20 9//20 23//20
f 11//20 13//20 19//20
f 33//20 34//20 14//20
f 35//20 36//20 14//20
f 24//20 26//20 27//20
f 28//20 22//20 24//20
f 30//20 31//20 20//20
f 23//20 5//20 7//20
f 9//20 11//20 23//20
f 34//20 35//20 14//20
f 14//20 13//20 33//20
f 29//20 20//20 19//20
f 11//20 19//20 20//20
usemtl Material.005
f 18//21 41//21 29//21
f 41//22 42//22 30//22
f 42//23 43//23 31//23
f 43//24 44//24 32//24
f 44//25 21//25 20//25
f 19//21 18//21 29//21
f 29//22 41//22 30//22
f 30//23 42//23 31//23
f 31//24 43//24 32//24
f 32//25 44//25 20//25
